# xmcd CD database file
#
# Track frame offsets:
#	150
#	13813
#	28454
#	40102
#	51392
#	66070
#	78017
#	92117
#	104074
#	118214
#	131888
#	145024
#	159150
#	173342
#	187794
#	200186
#	211419
#	223119
#	236221
#	250941
#	265684
#	277893
#
# Disc length: 3890 seconds
#
# Revision: 0
# Processed by: cddbd v1.5.2PL0 Copyright (c) Steve Scherf et al.
# Submitted via: CDex 1.70beta2
#
DISCID=440f3016
DTITLE=Fitzgerald, Ella - Best of Jazz - The Swing Era  An Introduction to Ella Fitsgerald:  Her Best Recordings  1936 - 1949
DYEAR=2000
DGENRE=Jazz
TTITLE0=My Melancholy Baby
TTITLE1=All My Life
TTITLE2=Sing Me a Swing Song
TTITLE3=Take Another Guess
TTITLE4=The Dipsy Doodle
TTITLE5=If Dreams Come True
TTITLE6=Bei Mer Bist Du Schoen
TTITLE7=A-Tisket, A-Tasket
TTITLE8=I Want the Waiter
TTITLE9=Imagination
TTITLE10=Cow Cow Boogie
TTITLE11=Time Alone Will Tell
TTITLE12=Into Each Life Some Rain Must Fall
TTITLE13=I'm Making Believe
TTITLE14=I'm Beginning to See the Light
TTITLE15=Flying Home
TTITLE16=Petootie Pie
TTITLE17=You Won't Be Satisfied
TTITLE18=Oh! Lady Be Good
TTITLE19=How High The Moon
TTITLE20=Baby!  It's Cold Outside
TTITLE21=Basin Street Blues
EXTD=YEAR: 2000
EXTT0=
EXTT1=
EXTT2=
EXTT3=
EXTT4=
EXTT5=
EXTT6=
EXTT7=
EXTT8=
EXTT9=
EXTT10=
EXTT11=
EXTT12=
EXTT13=
EXTT14=
EXTT15=
EXTT16=
EXTT17=
EXTT18=
EXTT19=
EXTT20=
EXTT21=
PLAYORDER=
